<svg width="32" height="33" viewBox="0 0 32 33" fill="none" xmlns="http://www.w3.org/2000/svg">
  <path
    d="M20.53 13.03L17.06 16.5L20.53 19.97C20.6037 20.0387 20.6628 20.1215 20.7038 20.2135C20.7448 20.3055 20.7668 20.4048 20.7686 20.5055C20.7704 20.6062 20.7518 20.7062 20.7141 20.7996C20.6764 20.893 20.6203 20.9778 20.549 21.049C20.4778 21.1203 20.393 21.1764 20.2996 21.2141C20.2062 21.2518 20.1062 21.2704 20.0055 21.2686C19.9048 21.2668 19.8055 21.2448 19.7135 21.2038C19.6215 21.1628 19.5387 21.1037 19.47 21.03L16 17.56L12.53 21.03C12.3878 21.1625 12.1998 21.2346 12.0055 21.2312C11.8112 21.2277 11.6258 21.149 11.4884 21.0116C11.351 20.8742 11.2723 20.6888 11.2688 20.4945C11.2654 20.3002 11.3375 20.1122 11.47 19.97L14.94 16.5L11.47 13.03C11.3375 12.8878 11.2654 12.6998 11.2688 12.5055C11.2723 12.3112 11.351 12.1258 11.4884 11.9884C11.6258 11.851 11.8112 11.7723 12.0055 11.7688C12.1998 11.7654 12.3878 11.8375 12.53 11.97L16 15.44L19.47 11.97C19.6122 11.8375 19.8002 11.7654 19.9945 11.7688C20.1888 11.7723 20.3742 11.851 20.5116 11.9884C20.649 12.1258 20.7278 12.3112 20.7312 12.5055C20.7346 12.6998 20.6625 12.8878 20.53 13.03ZM28.75 16.5C28.75 19.0217 28.0022 21.4868 26.6012 23.5835C25.2003 25.6802 23.209 27.3144 20.8792 28.2795C18.5495 29.2445 15.9859 29.497 13.5126 29.005C11.0393 28.5131 8.76751 27.2987 6.98439 25.5156C5.20127 23.7325 3.98695 21.4607 3.49499 18.9874C3.00303 16.5141 3.25552 13.9505 4.22054 11.6208C5.18556 9.29103 6.81976 7.29975 8.91648 5.89876C11.0132 4.49777 13.4783 3.75 16 3.75C19.3803 3.75397 22.621 5.09854 25.0112 7.48877C27.4015 9.879 28.746 13.1197 28.75 16.5ZM27.25 16.5C27.25 14.275 26.5902 12.0999 25.354 10.2498C24.1179 8.39978 22.3609 6.95784 20.3052 6.10635C18.2495 5.25487 15.9875 5.03208 13.8052 5.46617C11.623 5.90025 9.61839 6.97171 8.04505 8.54505C6.47171 10.1184 5.40025 12.1229 4.96617 14.3052C4.53209 16.4875 4.75487 18.7495 5.60636 20.8052C6.45785 22.8609 7.89979 24.6179 9.74984 25.854C11.5999 27.0902 13.775 27.75 16 27.75C18.9827 27.7467 21.8422 26.5604 23.9513 24.4513C26.0604 22.3422 27.2467 19.4827 27.25 16.5Z"
    fill="#696868" />
</svg>